<svg xmlns="http://www.w3.org/2000/svg" viewBox="0 0 600 260" role="img" aria-label="Electrical shop illustration">
  <defs>
    <linearGradient id="bg" x1="0" y1="0" x2="1" y2="1">
      <stop offset="0%" stop-color="#dbeafe" />
      <stop offset="100%" stop-color="#bfdbfe" />
    </linearGradient>
    <linearGradient id="bolt" x1="0" y1="0" x2="0" y2="1">
      <stop offset="0%" stop-color="#f59e0b" />
      <stop offset="100%" stop-color="#f97316" />
    </linearGradient>
  </defs>
  <rect width="600" height="260" rx="24" fill="url(#bg)" />
  <rect x="56" y="58" width="120" height="144" rx="16" fill="#1d4ed8" opacity="0.95" />
  <rect x="80" y="84" width="72" height="22" rx="4" fill="#93c5fd" />
  <rect x="80" y="118" width="72" height="22" rx="4" fill="#93c5fd" />
  <rect x="80" y="152" width="72" height="22" rx="4" fill="#93c5fd" />
  <circle cx="312" cy="128" r="76" fill="#ffffff" opacity="0.85" />
  <path d="M322 62l-42 68h30l-22 68 56-82h-28l20-54z" fill="url(#bolt)" />
  <rect x="424" y="72" width="120" height="132" rx="14" fill="#2563eb" />
  <rect x="448" y="96" width="72" height="16" rx="3" fill="#bfdbfe" />
  <rect x="448" y="124" width="72" height="16" rx="3" fill="#bfdbfe" />
  <rect x="448" y="152" width="72" height="16" rx="3" fill="#bfdbfe" />
</svg>
